<?xml version="1.0" encoding="utf-8"?>
<!-- Generator: Adobe Illustrator 27.3.1, SVG Export Plug-In . SVG Version: 6.00 Build 0)  -->
<svg version="1.1" id="Layer_1" xmlns="http://www.w3.org/2000/svg" xmlns:xlink="http://www.w3.org/1999/xlink" x="0px" y="0px"
	 viewBox="0 0 628.1 123.2" style="enable-background:new 0 0 628.1 123.2;" xml:space="preserve">
<style type="text/css">
	.st0{fill:none;stroke:#0091D3;stroke-width:3;stroke-linecap:round;stroke-linejoin:round;stroke-miterlimit:10;}
	.st1{fill:#1C4369;}
</style>
<g>
	<polygon class="st0" points="117.8,5 105,84.6 70.4,69.9 	"/>
	<polygon class="st0" points="117.8,5 28.7,56.4 58.3,67.2 	"/>
	<polyline class="st0" points="58.3,67.2 68,94.6 82.1,74.9 	"/>
	<line class="st0" x1="70.4" y1="69.5" x2="68" y2="94.6"/>
	<line class="st0" x1="3.5" y1="98.4" x2="14.6" y2="106.2"/>
	<line class="st0" x1="22.6" y1="108.8" x2="34.1" y2="108.8"/>
	<line class="st0" x1="43.8" y1="106.2" x2="53.2" y2="100.8"/>
</g>
<g>
	<path class="st1" d="M153.6,26.4c-0.2,0-0.3-2.1-0.3-5.4c0-2,4.9-8.2,24-8.2c10.9,0,11.6,2.3,11.6,4.7c0,2.5-0.5,4.9-8.7,4.9
		c-0.9,0-1.8,0-2.7-0.1c-6.2,24.1-5.5,25.8-13.5,56c1,0,10.6,1,10.6,4.4c0,1.2-1,2.3-3,3.4c-4.6,0-34.7,0.1-34.7-0.2
		c0-0.3,2.5-1.3,2.8-4.1c0.2-1.9,8-3.5,12.3-3.8c5.2-21.8,10.5-44.3,14.3-54.9c-6.2,0.7-7,1.3-12.5,3.3
		C153.6,26.3,153.6,26.4,153.6,26.4z"/>
	<path class="st1" d="M185.6,49.2c0.6-2.5,2.3-4.5,5.3-4.5s4,2,4,5c0,2.5-1.7,11.1-1.7,12.3h0.8c1-1.7,6.1-11.5,7.2-13.4
		c1.8-3,4-3.9,6.8-3.9c2.8,0,4.5,2.5,4.5,6.6c0,1.8-2.6,11.9-2.6,18.1c0,3.4,0.8,5.9,2.7,5.9c1.7,0,4.5-2.2,7-4.4
		c1.5-1.3,3-2.8,4.6-4.4l0.7,9.3l-2.1,1.6c-4.5,3.4-9.4,7.2-15.5,7.2c-3,0-5.4-4.5-5.4-13c0-3.3,0.5-7.1,1.2-11.6h-0.7l-10.9,21.6
		c-1.1,2.3-2.5,3-4.3,3c-4.5,0-5.3-4.2-5.3-8.7C182.1,68.6,184,55.8,185.6,49.2z"/>
	<path class="st1" d="M237.7,80.3c-3,2.7-6.4,4.4-9.4,4.4c-5.4,0-10.4-4.4-10.4-11.8c0-12.4,11-28.1,22.4-28.1
		c2.5,0,2.6,2.3,3.9,2.8c0.7,0.3,1.4,0.3,2.1,0.3c0.6,0,1.2,0,1.9,0c1.7,0,3,0.5,3,3.9c0,2.9-1,10.2-2,16.7c-0.6,3.8-1.2,7.9-2,12.3
		c3.3-1.9,7.6-5,14.9-15.5l2,9.2c-2,3.4-6.6,7.4-10.6,10.3c-2.4,1.8-4.9,3.5-7.6,5.2c-3.2,17.9-9.6,33.2-23.9,33.2
		c-3.8,0-9.3-1.1-9.3-8.3c0-7.6,12.1-21,24-30.8L237.7,80.3z M235.2,95.3c-6.4,4.3-14.5,14.5-14.5,18.4c0,1,0.5,1.5,1.7,1.5
		C229.5,115.2,233.9,101.9,235.2,95.3z M231.8,76.7c4.1,0,6.7-8.2,7.1-11.7l2.5-12.2c-6.8,0-12.9,11.1-12.9,18.4
		C228.6,73.9,229.3,76.7,231.8,76.7z"/>
	<path class="st1" d="M257.8,60.5c0-19.7,12.2-55.6,26.2-55.6c4.8,0,6,4.7,6,9.4c0,15.7-11.8,33.2-19.4,48.1
		c-0.5,1.1-1.3,3.6-1.6,5.9v0.6c0,2.9,1.4,5.7,2.2,5.7c2.1,0,5.6-2,8.6-4c1.7-1.2,3.6-2.5,5.5-4l3.4,8.7c-2.5,1.8-4.9,3.4-7.3,4.7
		c-4.2,2.3-9.2,4.7-13,4.7C262.4,84.6,257.8,73.3,257.8,60.5z M281.4,18.4c0-1.6,0-2.9-0.5-2.9c-4.8,0-12.5,19.9-12.5,35.9
		C273.4,42.6,280.4,28.5,281.4,18.4z"/>
	<path class="st1" d="M281.5,67.3c0-9.4,5.6-22.5,17-22.5c6.2,0,10.9,4.1,10.9,10.4c0,6.9-7.1,14.2-16.8,16.9c1.7,3,3.1,3.8,5.2,3.8
		c6.6,0,15.2-5.9,19.5-10.1l5.4,5.6c-2.5,2.5-5,4.7-7.8,6.7c-4.8,3.3-11.1,6.6-17.8,6.6C286.6,84.6,281.5,76.5,281.5,67.3z
		 M301.7,57c0-2.5-1-4.3-2.4-4.3c-7.1,0-7.8,8.7-7.8,12.4C295.5,65.1,301.7,60.5,301.7,57z"/>
	<path class="st1" d="M331.7,48.7c1.4-2,3.5-4,6.6-4c5.3,0,5.3,2.7,5.3,4c0,2.7-5,6.7-5.3,8c0,5.2,2.7,6.6,2.7,17.3
		c4-2.7,9.3-4,14.6-8l0,9.3c-6.8,5.3-18.7,9.7-27.8,9.7c-6.5,0-11.6-2.3-12.1-8.3c-0.8,0.2-1.5,0.2-2.2,0.2c-1.8,0-3.2,0-3.2-3
		c0-2.7,3.1-4.5,4-5.3C323.7,60.7,321.1,62,331.7,48.7z M319.7,74c1.3,0,3.1,4,6.7,4c4.3,0,5.5-3.1,5.5-6.5c0-3-0.9-6.3-1.5-8.1
		L319.7,74z"/>
	<path class="st1" d="M427.5,41.9c0,20.9-14.2,45.2-37.2,45.2c-5.2,0-11.1-1.7-14.5-3.5c-1.5-0.5-1.6-1-1.6-2.9
		c0-18.4,1.3-39.4,10.3-52.6c2-1.4,3.7-2,5.4-2c2,0,3.7,1.1,5.1,3.4c-5.1,6.9-6.6,17.3-7.9,26.5c-1.5,10.2-2,14-2,17.9
		c0,4.1,0.3,5.4,4,5.4c16.7,0,28.4-21,28.4-36.6c0-12.8-8.8-20.5-21.6-20.5c-9.3,0-18.8,2.2-21.8,7.1c-4,6.3-6.5,9.8-8.3,9.8
		c-1.2,0-1.8-1.4-1.8-4.2c0-16.3,13.3-22.5,27.9-22.5C418.9,12.5,427.5,26.7,427.5,41.9z"/>
	<path class="st1" d="M452.4,75.8c-4,3.7-12.5,8.9-18.9,8.9c-5.8,0-7.7-3.3-7.7-8.4c0-7,3.7-19.2,5.7-27.5c0.8-2.9,5.1-4,7.6-4
		c2.3,0,3,0.9,3,2.4c0,3.7-5.6,17.8-5.6,25.5c0,2.5,0.4,4.1,2.1,4.1c3.9,0,10.2-6.3,13.8-9.3V75.8z M442,26.1c3.9,0,7.1,1.7,7.1,5.8
		c0,3.7-2.4,7.4-8.1,7.4c-4.9,0-7.1-2.5-7.1-6.3C433.9,30.5,435.8,26.1,442,26.1z"/>
	<path class="st1" d="M454.3,47.6c0.9-2.4,1.6-2.8,4.1-2.8c2.9,0,3,0.3,3,3.8c0,2,0,5.2,0.1,8h0.5c2.2-4.4,5.4-11.8,11.4-11.8
		c2.2,0,4.1,1.5,4.1,3.9c0,1.9-1.3,7.2-1.3,9.5c0,4,1.7,5.2,3.4,5.2c2.5,0,5.3-1.3,7.5-2.7c1.3-0.8,2.6-1.7,3.8-2.7l-0.6,9.7
		c-2.9,1.9-7.4,5-12,5c-8.3,0-9.7-7.4-10.6-14.4h-0.7L459.4,79c-1.5,4.3-2.7,5.6-4.7,5.6c-4.5,0-5.3-4.2-5.3-8.7
		C449.5,68.7,452.1,53,454.3,47.6z"/>
	<path class="st1" d="M483.8,67.3c0-9.4,5.6-22.5,17-22.5c6.2,0,10.9,4.1,10.9,10.4c0,6.9-7.1,14.2-16.8,16.9c1.7,3,3.1,3.8,5.2,3.8
		c6.6,0,15.2-5.9,19.5-10.1l5.4,5.6c-2.5,2.5-5,4.7-7.8,6.7c-4.8,3.3-11.1,6.6-17.8,6.6C489,84.6,483.8,76.5,483.8,67.3z M504,57
		c0-2.5-1-4.3-2.4-4.3c-7.1,0-7.8,8.7-7.8,12.4C497.8,65.1,504,60.5,504,57z"/>
	<path class="st1" d="M515.4,67.5c0-9.6,6-22.7,17-22.7c6.4,0,10.9,4.1,10.9,9.6c0,3.8-2.1,7.7-5.6,7.7c-2.6,0-3.2-1.5-3.2-3.9
		c0-1,0.1-2.2,0.1-3.1c0-1.3-0.2-2.3-1.1-2.3c-6.8,0-7.6,10.8-7.6,14.7s1.2,9.2,6.6,9.2c5.3,0,13.4-7.3,17.7-12.7l2.9,4.8
		c-2.1,3-4.3,5.6-6.7,7.9c-4.1,4-9.7,7.9-15.6,7.9C520.8,84.6,515.4,76.5,515.4,67.5z"/>
	<path class="st1" d="M583.2,75.3c-10.6,6.2-16.3,9.3-20.4,9.3c-8.5,0-12.8-10.6-12.8-27.6c0-3.3,0.3-7.2,0.8-10.9
		c-3.3-0.5-2.8-0.7-8.8-1.3c-2.7-0.3-2.7-2.1-2.7-3.2c0-3.2,10.9-1.8,12.6-2.1c3-14.9,9.3-29.3,16.7-29.3c4.8,0,7.9,5.7,7.9,12.2
		c0,5.5-3.4,12.1-7.4,18.4c1.5,0.2,9.7,0.3,12.4,0.5c1.1,0,1.6,1.2,1.6,2.8c0,2-1.3,3.3-2.7,3.3h-16c-1.6,2.2-3.3,4.4-4.7,6.1
		c-0.1,1.7-0.2,3.4-0.3,5.1c-0.1,2.9-0.2,6.2-0.2,8.6c0,5.9,2.3,8.1,6.1,8.1c3.5,0,12.8-5.2,17.7-10.6V75.3z M567.7,19.5
		c-3,0-5.9,11.3-7.9,20.3c0.8,0.1,1.7,0.2,2.5,0.3c3.3-5.7,7.5-13.8,7.5-17.3C569.9,21.5,569.8,19.5,567.7,19.5z"/>
	<path class="st1" d="M607.4,53.5c1.6,3.2,2.4,6.9,2.4,10.2c0,9.8-6.6,20.9-16.9,20.9c-9.8,0-13.7-9.3-13.7-18.2
		c0-12.2,7.5-21.7,19.9-21.7c10.6,0,18.3,7.1,24.3,14.7l-0.8,5.9c-3-4-10.9-9.6-14.9-12.3L607.4,53.5z M601.9,61.8
		c0-5.1-1.5-9-4.9-9c-4.6,0-8.4,8.6-8.4,15.5c0,4.6,1.7,8.5,6,8.5C598.4,76.7,601.9,68.2,601.9,61.8z"/>
</g>
<g>
	<g>
		<path class="st1" d="M317.5,23.5c1.2-1,3.4-2.1,5.1-0.1c1.4,1.7,2.5,4.2-1,7.1l-5.6,5.9c-2.7,2.2-9.5,4.4-10.5,3.1
			c-0.9-1.1,2.7-7,5.5-9.3L317.5,23.5z"/>
	</g>
</g>
</svg>
