<svg xmlns="http://www.w3.org/2000/svg" xmlns:xlink="http://www.w3.org/1999/xlink" version="1.1" id="Layer_1" x="0px" y="0px" style="enable-background:new 0 0 864 864;" xml:space="preserve" viewBox="144.3 368 598.9 119.5">
<style type="text/css">
	.st0{fill:#1C4369;}
	.st1{fill:none;stroke:#0091D3;stroke-width:3;stroke-linecap:round;stroke-linejoin:round;stroke-miterlimit:10;}
</style>
<g>
	<g>
		<path class="st0" d="M279.5,431c0-9.5,5.6-22.7,17.1-22.7c6.2,0,11,4.2,11,10.5c0,6.9-7.2,14.3-17,17c1.7,3.1,3.1,3.8,5.3,3.8    c6.7,0,15.4-6,19.7-10.2l5.4,5.6c-2.5,2.6-5.1,4.8-7.8,6.8c-4.8,3.4-11.2,6.7-18,6.7C284.8,448.5,279.5,440.3,279.5,431z     M300,420.6c0-2.5-1-4.3-2.4-4.3c-7.2,0-7.8,8.8-7.8,12.5C293.7,428.8,300,424.1,300,420.6z"/>
		<path class="st0" d="M317.7,412.8c0.6-2.6,2.3-4.5,5.4-4.5s4,2,4,5.1c0,2.5-1.7,11.2-1.7,12.4h0.8c1-1.8,6.2-11.6,7.3-13.5    c1.8-3,4.1-3.9,6.9-3.9c2.8,0,4.6,2.5,4.6,6.6c0,1.8-2.6,12-2.6,18.3c0,3.5,0.8,6,2.7,6c1.7,0,4.5-2.2,7.1-4.4    c1.5-1.3,3-2.8,4.7-4.4l0.7,9.4l-2.1,1.6c-4.6,3.5-9.5,7.3-15.6,7.3c-3.1,0-5.5-4.5-5.5-13.1c0-3.4,0.5-7.2,1.2-11.7h-0.7    l-11,21.8c-1.1,2.3-2.5,3-4.3,3c-4.6,0-5.3-4.3-5.3-8.8C314.1,432.4,316.1,419.4,317.7,412.8z"/>
		<path class="st0" d="M370.3,444.1c-3,2.7-6.4,4.5-9.5,4.5c-5.4,0-10.5-4.5-10.5-11.9c0-12.5,11.1-28.4,22.6-28.4    c2.6,0,2.6,2.3,3.9,2.9c0.7,0.3,1.4,0.3,2.1,0.3c0.6,0,1.3,0,1.9,0c1.7,0,3,0.5,3,3.9c0,2.9-1,10.3-2,16.8c-0.6,3.9-1.3,8-2,12.4    c3.4-1.9,7.6-5,15-15.6l2,9.3c-2,3.4-6.7,7.4-10.7,10.4c-2.4,1.8-4.9,3.5-7.7,5.2c-3.2,18-9.7,33.6-24.2,33.6    c-3.9,0-9.4-1.1-9.4-8.3c0-7.6,12.2-21.2,24.2-31.1L370.3,444.1z M367.8,459.2c-6.5,4.3-14.6,14.7-14.6,18.6c0,1,0.5,1.6,1.7,1.6    C362,479.4,366.4,466,367.8,459.2z M364.3,440.5c4.2,0,6.8-8.3,7.2-11.8l2.6-12.3c-6.9,0-13,11.2-13,18.6    C361.1,437.7,361.8,440.5,364.3,440.5z"/>
		<path class="st0" d="M390.6,424.1c0-19.9,12.3-56.1,26.5-56.1c4.8,0,6,4.8,6,9.5c0,15.8-11.9,33.5-19.6,48.6    c-0.5,1.1-1.3,3.6-1.6,5.9v0.6c0,2.9,1.4,5.7,2.2,5.7c2.1,0,5.7-2,8.7-4c1.8-1.2,3.6-2.5,5.5-4.1l3.4,8.8    c-2.5,1.8-4.9,3.4-7.4,4.8c-4.2,2.3-9.3,4.7-13.1,4.7C395.3,448.5,390.6,437.1,390.6,424.1z M414.4,381.6c0-1.6,0-2.9-0.5-2.9    c-4.9,0-12.6,20.1-12.6,36.2C406.4,406,413.4,391.8,414.4,381.6z"/>
		<path class="st0" d="M441.6,439.6c-4,3.7-12.6,8.9-19,8.9c-5.8,0-7.8-3.4-7.8-8.4c0-7.1,3.7-19.4,5.7-27.8    c0.8-2.9,5.1-4.1,7.6-4.1c2.3,0,3,0.9,3,2.4c0,3.7-5.6,18-5.6,25.7c0,2.5,0.4,4.1,2.1,4.1c4,0,10.3-6.4,14-9.4V439.6z M431,389.4    c3.9,0,7.1,1.7,7.1,5.9c0,3.8-2.4,7.5-8.1,7.5c-4.9,0-7.2-2.5-7.2-6.4C422.8,393.9,424.8,389.4,431,389.4z"/>
		<path class="st0" d="M454.7,412.3c1.4-2,3.5-4,6.7-4c5.4,0,5.4,2.7,5.4,4c0,2.7-5,6.8-5.4,8.1c0,5.2,2.7,6.7,2.7,17.4    c4-2.7,9.4-4,14.8-8.1l0,9.4c-6.9,5.3-18.9,9.8-28.1,9.8c-6.6,0-11.7-2.3-12.2-8.3c-0.8,0.2-1.6,0.2-2.3,0.2c-1.8,0-3.2,0-3.2-3    c0-2.7,3.1-4.6,4-5.4C446.6,424.3,444,425.7,454.7,412.3z M442.6,437.8c1.3,0,3.1,4,6.8,4c4.4,0,5.5-3.1,5.5-6.6    c0-3.1-0.9-6.3-1.5-8.2L442.6,437.8z"/>
		<path class="st0" d="M489.3,422.4c4.6-6,11.9-14.9,17.2-14.9c1.3,0,3.6,0.8,3.6,4.6c0,7.6-5,14.2-5,22.4c0,2.2,0.8,3.7,1.8,3.7    c2.7,0,6.1-2.4,8.7-4.8c1.6-1.4,3.1-3.1,4.5-4.9l0.7,11.2c-3,2.3-11.3,8.9-17.3,8.9c-6.2,0-9-7.4-9-12.8c0-5.5,4.7-15,5.2-15.4    l-0.9-0.1c-1.8,1.2-9.9,10.8-14.8,21c-2.5,5-2.8,7.4-5.6,7.4c-3.6,0-4.1-4.7-4.1-9.4c0-15,0.6-71.2,23.9-71.2c6,0,7.5,3.7,7.5,9.3    c0,12.5-11.6,33.9-17.4,44.6L489.3,422.4z M497.8,379.2c0-2.1-0.3-3.2-0.8-3.2c-1.5,0-4.4,4.9-8.3,13.9c-1.9,6.2-3.2,13.3-4,19    c-0.5,3.3-0.8,6.6-1.1,9.8c3-7,7.5-17.2,9.5-22.2C496.4,387.9,497.8,382,497.8,379.2z"/>
		<path class="st0" d="M588,440.3c-2,1.6-3.9,2.9-5.9,4.1c-3.3,2-7.3,4.1-10,4.1c-1.6,0-6.7-0.9-9.4-7.4c-4.2,4-9.4,7.5-14.5,7.5    c-7.2,0-10.7-6.8-10.7-13.8c0-10.7,8.6-22.9,21.4-24.1c0.5-21.5,9.8-42.6,20.5-42.6c5.3,0,7.2,5.9,7.2,12.3c0,1,0,2-0.1,3    c-1.5,15.9-8.4,27.4-14.2,41.5c-0.5,1.5-1.3,4.7-1.3,7.3c0,3.2,0.7,6.1,2.9,6.1c2.1,0,5.2-1.9,7.9-3.8c1.6-1.1,3.1-2.4,4.8-3.8    L588,440.3z M547.7,435c0,2.2,0.8,4.7,4.7,4.7c2,0,3.9-2.1,5.3-4.4c0.8-1.3,1.5-2.7,2.1-4.4c-0.5-2.3-0.5-14.3-0.6-14.1    C551.7,420.4,547.7,429.3,547.7,435z M579.1,381.7c0-3-0.5-4-1.6-4c-5.4,0-7.6,22.7-7.9,26.8c-0.5,5.5-0.5,10.3-0.5,12v0.4    c1.6-3.6,3.1-7.3,4.4-10.9c2.3-6.2,4.7-13.8,5.2-19.7C579.1,384.4,579.1,382.9,579.1,381.7z"/>
		<path class="st0" d="M611.2,439.6c-4,3.7-12.6,8.9-19,8.9c-5.8,0-7.8-3.4-7.8-8.4c0-7.1,3.7-19.4,5.7-27.8    c0.8-2.9,5.1-4.1,7.6-4.1c2.3,0,3,0.9,3,2.4c0,3.7-5.6,18-5.6,25.7c0,2.5,0.4,4.1,2.1,4.1c4,0,10.3-6.4,14-9.4V439.6z     M600.7,389.4c3.9,0,7.1,1.7,7.1,5.9c0,3.8-2.4,7.5-8.1,7.5c-4.9,0-7.2-2.5-7.2-6.4C592.4,393.9,594.4,389.4,600.7,389.4z"/>
		<path class="st0" d="M613,411.1c0.9-2.4,1.6-2.9,4.2-2.9c2.9,0,3,0.3,3,3.8c0,2.1,0,5.2,0.1,8.1h0.5c2.2-4.5,5.4-11.9,11.5-11.9    c2.2,0,4.1,1.5,4.1,3.9c0,1.9-1.3,7.3-1.3,9.6c0,4,1.7,5.2,3.4,5.2c2.5,0,5.4-1.3,7.6-2.7c1.3-0.8,2.6-1.7,3.9-2.8l-0.6,9.8    c-2.9,1.9-7.5,5.1-12.2,5.1c-8.3,0-9.8-7.5-10.7-14.5h-0.7l-7.5,20.9c-1.6,4.3-2.7,5.7-4.7,5.7c-4.6,0-5.3-4.3-5.3-8.8    C608.2,432.4,610.9,416.5,613,411.1z"/>
		<path class="st0" d="M642.8,431c0-9.5,5.6-22.7,17.1-22.7c6.2,0,11,4.2,11,10.5c0,6.9-7.2,14.3-17,17c1.7,3.1,3.1,3.8,5.3,3.8    c6.7,0,15.4-6,19.7-10.2l5.4,5.6c-2.5,2.6-5.1,4.8-7.8,6.8c-4.8,3.4-11.2,6.7-18,6.7C648.1,448.5,642.8,440.3,642.8,431z     M663.3,420.6c0-2.5-1-4.3-2.4-4.3c-7.2,0-7.8,8.8-7.8,12.5C657,428.8,663.3,424.1,663.3,420.6z"/>
		<path class="st0" d="M674.8,431.2c0-9.7,6-22.9,17.2-22.9c6.4,0,11,4.2,11,9.7c0,3.8-2.1,7.8-5.6,7.8c-2.6,0-3.2-1.5-3.2-3.9    c0-1,0.1-2.2,0.1-3.1c0-1.3-0.2-2.3-1.1-2.3c-6.8,0-7.6,10.9-7.6,14.8c0,4,1.2,9.3,6.7,9.3c5.4,0,13.5-7.4,17.8-12.8l2.9,4.9    c-2.1,3-4.4,5.7-6.8,8c-4.1,4-9.8,8-15.7,8C680.2,448.5,674.8,440.3,674.8,431.2z"/>
		<path class="st0" d="M743.2,439.1c-10.7,6.3-16.4,9.4-20.6,9.4c-8.6,0-13-10.7-13-27.9c0-3.4,0.3-7.3,0.8-11    c-3.4-0.5-2.8-0.7-8.9-1.3c-2.7-0.3-2.7-2.1-2.7-3.2c0-3.3,11-1.8,12.7-2.1c3-15.1,9.4-29.5,16.9-29.5c4.9,0,8,5.7,8,12.3    c0,5.5-3.4,12.2-7.4,18.6c1.5,0.2,9.8,0.3,12.5,0.5c1.1,0,1.6,1.2,1.6,2.9c0,2-1.3,3.3-2.7,3.3h-16.1c-1.6,2.2-3.4,4.5-4.7,6.2    c-0.1,1.7-0.2,3.4-0.3,5.1c-0.1,2.9-0.3,6.3-0.3,8.6c0,6,2.3,8.2,6.2,8.2c3.5,0,12.9-5.2,17.9-10.7V439.1z M727.6,382.7    c-3,0-5.9,11.5-7.9,20.5c0.8,0.1,1.7,0.2,2.6,0.3c3.4-5.7,7.6-13.9,7.6-17.5C729.8,384.8,729.7,382.7,727.6,382.7z"/>
	</g>
</g>
<g>
	<polygon class="st1" points="260.1,372.3 247.3,452 212.7,437.2  "/>
	<polygon class="st1" points="260.1,372.3 171,423.8 200.6,434.5  "/>
	<polyline class="st1" points="200.6,434.5 210.4,461.9 224.4,442.2  "/>
	<line class="st1" x1="212.7" y1="436.9" x2="210.4" y2="461.9"/>
	<line class="st1" x1="145.8" y1="465.8" x2="156.9" y2="473.5"/>
	<line class="st1" x1="165" y1="476.2" x2="176.4" y2="476.2"/>
	<line class="st1" x1="186.2" y1="473.5" x2="195.6" y2="468.1"/>
</g>
</svg>